# MagicaVoxel @ Ephtracy

# group
o 

# material
mtllib glider.mtl
usemtl palette

# normals
vn -1 0 0
vn 1 0 0
vn 0 0 1
vn 0 0 -1
vn 0 -1 0
vn 0 1 0

# texcoords
vt 0.533203 0.5
vt 0.841797 0.5
vt 0.958984 0.5

# verts
v -1 1.9 -0.8
v -1 1.9 -1.1
v -1 2 -0.8
v -1 2 -1.1
v -0.9 1.9 -0.5
v -0.9 1.9 -0.8
v -0.9 2 -0.5
v -0.9 2 -0.8
v -0.8 1.9 -0.2
v -0.8 1.9 -0.5
v -0.8 2 -0.2
v -0.8 2 -0.5
v -0.7 1.9 0.1
v -0.7 1.9 -0.2
v -0.7 2 0.1
v -0.7 2 -0.2
v -0.6 1.9 0.4
v -0.6 1.9 0.1
v -0.6 2 0.4
v -0.6 2 0.1
v -0.5 1.9 0.7
v -0.5 1.9 0.4
v -0.5 2 0.7
v -0.5 2 0.4
v -0.4 1.9 1
v -0.4 1.9 0.7
v -0.4 2 1
v -0.4 2 0.7
v 0.4 1.9 1
v 0.4 1.9 0.7
v 0.4 2 1
v 0.4 2 0.7
v 0.5 1.9 0.7
v 0.5 1.9 0.4
v 0.5 2 0.7
v 0.5 2 0.4
v 0.6 1.9 0.4
v 0.6 1.9 0.1
v 0.6 2 0.4
v 0.6 2 0.1
v 0.7 1.9 0.1
v 0.7 1.9 -0.2
v 0.7 2 0.1
v 0.7 2 -0.2
v 0.8 1.9 -0.2
v 0.8 1.9 -0.5
v 0.8 2 -0.2
v 0.8 2 -0.5
v 0.9 1.9 -0.5
v 0.9 1.9 -0.8
v 0.9 2 -0.5
v 0.9 2 -0.8
v 1 1.9 -0.8
v 1 1.9 -1.1
v 1 2 -0.8
v 1 2 -1.1
v -0.4 1.9 1
v -0.4 2 1
v -0.3 1.9 1
v -0.3 2 1
v -0.2 1.9 1
v -0.2 2 1
v -0.1 1.9 1
v -0.1 2 1
v 0 1.9 1
v 0 2 1
v 0.1 1.9 1
v 0.1 2 1
v 0.2 1.9 1
v 0.2 2 1
v 0.3 1.9 1
v 0.3 2 1
v 0.4 1.9 1
v 0.4 2 1
v -0.5 1.9 0.7
v -0.5 2 0.7
v -0.4 1.9 0.7
v -0.4 2 0.7
v 0.4 1.9 0.7
v 0.4 2 0.7
v 0.5 1.9 0.7
v 0.5 2 0.7
v -0.6 1.9 0.4
v -0.6 2 0.4
v -0.5 1.9 0.4
v -0.5 2 0.4
v 0.5 1.9 0.4
v 0.5 2 0.4
v 0.6 1.9 0.4
v 0.6 2 0.4
v -0.7 1.9 0.1
v -0.7 2 0.1
v -0.6 1.9 0.1
v -0.6 2 0.1
v 0.6 1.9 0.1
v 0.6 2 0.1
v 0.7 1.9 0.1
v 0.7 2 0.1
v -0.8 1.9 -0.2
v -0.8 2 -0.2
v -0.7 1.9 -0.2
v -0.7 2 -0.2
v 0.7 1.9 -0.2
v 0.7 2 -0.2
v 0.8 1.9 -0.2
v 0.8 2 -0.2
v -0.9 1.9 -0.5
v -0.9 2 -0.5
v -0.8 1.9 -0.5
v -0.8 2 -0.5
v 0.8 1.9 -0.5
v 0.8 2 -0.5
v 0.9 1.9 -0.5
v 0.9 2 -0.5
v -1 1.9 -0.8
v -1 2 -0.8
v -0.9 1.9 -0.8
v -0.9 2 -0.8
v 0.9 1.9 -0.8
v 0.9 2 -0.8
v 1 1.9 -0.8
v 1 2 -0.8
v -1 1.9 -1.1
v -1 2 -1.1
v 1 1.9 -1.1
v 1 2 -1.1
v -0.4 1.9 1
v -0.3 1.9 1
v -0.2 1.9 1
v -0.1 1.9 1
v 0 1.9 1
v 0.1 1.9 1
v 0.2 1.9 1
v 0.3 1.9 1
v 0.4 1.9 1
v -0.5 1.9 0.7
v -0.4 1.9 0.7
v -0.3 1.9 0.7
v 0.3 1.9 0.7
v 0.4 1.9 0.7
v 0.5 1.9 0.7
v -0.6 1.9 0.4
v -0.5 1.9 0.4
v -0.4 1.9 0.4
v 0.4 1.9 0.4
v 0.5 1.9 0.4
v 0.6 1.9 0.4
v -0.7 1.9 0.1
v -0.6 1.9 0.1
v -0.5 1.9 0.1
v 0.5 1.9 0.1
v 0.6 1.9 0.1
v 0.7 1.9 0.1
v -0.8 1.9 -0.2
v -0.7 1.9 -0.2
v -0.6 1.9 -0.2
v 0.6 1.9 -0.2
v 0.7 1.9 -0.2
v 0.8 1.9 -0.2
v -0.9 1.9 -0.5
v -0.8 1.9 -0.5
v -0.7 1.9 -0.5
v 0.7 1.9 -0.5
v 0.8 1.9 -0.5
v 0.9 1.9 -0.5
v -1 1.9 -0.8
v -0.9 1.9 -0.8
v -0.8 1.9 -0.8
v 0.8 1.9 -0.8
v 0.9 1.9 -0.8
v 1 1.9 -0.8
v -0.9 1.9 -1
v -0.8 1.9 -1
v -0.7 1.9 -1
v -0.6 1.9 -1
v -0.5 1.9 -1
v -0.4 1.9 -1
v -0.3 1.9 -1
v -0.2 1.9 -1
v -0.1 1.9 -1
v 0 1.9 -1
v 0.1 1.9 -1
v 0.2 1.9 -1
v 0.3 1.9 -1
v 0.4 1.9 -1
v 0.5 1.9 -1
v 0.6 1.9 -1
v 0.7 1.9 -1
v 0.8 1.9 -1
v 0.9 1.9 -1
v -1 1.9 -1.1
v 1 1.9 -1.1
v -0.4 2 1
v -0.3 2 1
v -0.2 2 1
v -0.1 2 1
v 0 2 1
v 0.1 2 1
v 0.2 2 1
v 0.3 2 1
v 0.4 2 1
v -0.5 2 0.7
v -0.4 2 0.7
v -0.3 2 0.7
v 0.3 2 0.7
v 0.4 2 0.7
v 0.5 2 0.7
v -0.6 2 0.4
v -0.5 2 0.4
v -0.4 2 0.4
v 0.4 2 0.4
v 0.5 2 0.4
v 0.6 2 0.4
v -0.7 2 0.1
v -0.6 2 0.1
v -0.5 2 0.1
v 0.5 2 0.1
v 0.6 2 0.1
v 0.7 2 0.1
v -0.8 2 -0.2
v -0.7 2 -0.2
v -0.6 2 -0.2
v 0.6 2 -0.2
v 0.7 2 -0.2
v 0.8 2 -0.2
v -0.9 2 -0.5
v -0.8 2 -0.5
v -0.7 2 -0.5
v 0.7 2 -0.5
v 0.8 2 -0.5
v 0.9 2 -0.5
v -1 2 -0.8
v -0.9 2 -0.8
v -0.8 2 -0.8
v 0.8 2 -0.8
v 0.9 2 -0.8
v 1 2 -0.8
v -0.9 2 -1
v -0.8 2 -1
v -0.7 2 -1
v -0.6 2 -1
v -0.5 2 -1
v -0.4 2 -1
v -0.3 2 -1
v -0.2 2 -1
v -0.1 2 -1
v 0 2 -1
v 0.1 2 -1
v 0.2 2 -1
v 0.3 2 -1
v 0.4 2 -1
v 0.5 2 -1
v 0.6 2 -1
v 0.7 2 -1
v 0.8 2 -1
v 0.9 2 -1
v -1 2 -1.1
v 1 2 -1.1

# faces
f 3/1/1 2/1/1 1/1/1
f 4/1/1 2/1/1 3/1/1
f 7/1/1 6/1/1 5/1/1
f 8/1/1 6/1/1 7/1/1
f 11/1/1 10/1/1 9/1/1
f 12/1/1 10/1/1 11/1/1
f 15/1/1 14/1/1 13/1/1
f 16/1/1 14/1/1 15/1/1
f 19/1/1 18/1/1 17/1/1
f 20/1/1 18/1/1 19/1/1
f 23/1/1 22/1/1 21/1/1
f 24/1/1 22/1/1 23/1/1
f 27/1/1 26/1/1 25/1/1
f 28/1/1 26/1/1 27/1/1
f 29/1/2 30/1/2 31/1/2
f 31/1/2 30/1/2 32/1/2
f 33/1/2 34/1/2 35/1/2
f 35/1/2 34/1/2 36/1/2
f 37/1/2 38/1/2 39/1/2
f 39/1/2 38/1/2 40/1/2
f 41/1/2 42/1/2 43/1/2
f 43/1/2 42/1/2 44/1/2
f 45/1/2 46/1/2 47/1/2
f 47/1/2 46/1/2 48/1/2
f 49/1/2 50/1/2 51/1/2
f 51/1/2 50/1/2 52/1/2
f 53/1/2 54/1/2 55/1/2
f 55/1/2 54/1/2 56/1/2
f 59/1/3 58/1/3 57/1/3
f 60/1/3 58/1/3 59/1/3
f 61/3/3 60/3/3 59/3/3
f 62/3/3 60/3/3 61/3/3
f 63/2/3 62/2/3 61/2/3
f 64/2/3 62/2/3 63/2/3
f 65/3/3 64/3/3 63/3/3
f 66/3/3 64/3/3 65/3/3
f 67/2/3 66/2/3 65/2/3
f 68/2/3 66/2/3 67/2/3
f 69/3/3 68/3/3 67/3/3
f 70/3/3 68/3/3 69/3/3
f 71/2/3 70/2/3 69/2/3
f 72/2/3 70/2/3 71/2/3
f 73/1/3 72/1/3 71/1/3
f 74/1/3 72/1/3 73/1/3
f 77/1/3 76/1/3 75/1/3
f 78/1/3 76/1/3 77/1/3
f 81/1/3 80/1/3 79/1/3
f 82/1/3 80/1/3 81/1/3
f 85/1/3 84/1/3 83/1/3
f 86/1/3 84/1/3 85/1/3
f 89/1/3 88/1/3 87/1/3
f 90/1/3 88/1/3 89/1/3
f 93/1/3 92/1/3 91/1/3
f 94/1/3 92/1/3 93/1/3
f 97/1/3 96/1/3 95/1/3
f 98/1/3 96/1/3 97/1/3
f 101/1/3 100/1/3 99/1/3
f 102/1/3 100/1/3 101/1/3
f 105/1/3 104/1/3 103/1/3
f 106/1/3 104/1/3 105/1/3
f 109/1/3 108/1/3 107/1/3
f 110/1/3 108/1/3 109/1/3
f 113/1/3 112/1/3 111/1/3
f 114/1/3 112/1/3 113/1/3
f 117/1/3 116/1/3 115/1/3
f 118/1/3 116/1/3 117/1/3
f 121/1/3 120/1/3 119/1/3
f 122/1/3 120/1/3 121/1/3
f 123/1/4 124/1/4 125/1/4
f 125/1/4 124/1/4 126/1/4
f 137/1/5 128/1/5 127/1/5
f 138/3/5 129/3/5 128/3/5
f 138/1/5 128/1/5 137/1/5
f 139/1/5 135/1/5 134/1/5
f 139/2/5 134/2/5 133/2/5
f 140/1/5 135/1/5 139/1/5
f 143/1/5 137/1/5 136/1/5
f 144/2/5 138/2/5 137/2/5
f 144/1/5 137/1/5 143/1/5
f 145/1/5 141/1/5 140/1/5
f 145/3/5 140/3/5 139/3/5
f 146/1/5 141/1/5 145/1/5
f 149/1/5 143/1/5 142/1/5
f 150/3/5 144/3/5 143/3/5
f 150/1/5 143/1/5 149/1/5
f 151/1/5 147/1/5 146/1/5
f 151/2/5 146/2/5 145/2/5
f 152/1/5 147/1/5 151/1/5
f 155/1/5 149/1/5 148/1/5
f 156/2/5 150/2/5 149/2/5
f 156/1/5 149/1/5 155/1/5
f 157/1/5 153/1/5 152/1/5
f 157/3/5 152/3/5 151/3/5
f 158/1/5 153/1/5 157/1/5
f 161/1/5 155/1/5 154/1/5
f 162/3/5 156/3/5 155/3/5
f 162/1/5 155/1/5 161/1/5
f 163/1/5 159/1/5 158/1/5
f 163/2/5 158/2/5 157/2/5
f 164/1/5 159/1/5 163/1/5
f 167/1/5 161/1/5 160/1/5
f 168/2/5 162/2/5 161/2/5
f 168/1/5 161/1/5 167/1/5
f 169/1/5 165/1/5 164/1/5
f 169/3/5 164/3/5 163/3/5
f 170/1/5 165/1/5 169/1/5
f 172/1/5 167/1/5 166/1/5
f 172/3/5 168/3/5 167/3/5
f 173/2/5 162/2/5 168/2/5
f 173/3/5 168/3/5 172/3/5
f 174/3/5 156/3/5 162/3/5
f 174/2/5 162/2/5 173/2/5
f 175/2/5 150/2/5 156/2/5
f 175/3/5 156/3/5 174/3/5
f 176/3/5 144/3/5 150/3/5
f 176/2/5 150/2/5 175/2/5
f 177/2/5 138/2/5 144/2/5
f 177/3/5 144/3/5 176/3/5
f 178/3/5 129/3/5 138/3/5
f 178/2/5 138/2/5 177/2/5
f 179/2/5 130/2/5 129/2/5
f 179/3/5 129/3/5 178/3/5
f 180/3/5 131/3/5 130/3/5
f 180/2/5 130/2/5 179/2/5
f 181/2/5 132/2/5 131/2/5
f 181/3/5 131/3/5 180/3/5
f 182/3/5 133/3/5 132/3/5
f 182/2/5 132/2/5 181/2/5
f 183/2/5 139/2/5 133/2/5
f 183/3/5 133/3/5 182/3/5
f 184/3/5 145/3/5 139/3/5
f 184/2/5 139/2/5 183/2/5
f 185/2/5 151/2/5 145/2/5
f 185/3/5 145/3/5 184/3/5
f 186/3/5 157/3/5 151/3/5
f 186/2/5 151/2/5 185/2/5
f 187/2/5 163/2/5 157/2/5
f 187/3/5 157/3/5 186/3/5
f 188/3/5 169/3/5 163/3/5
f 188/2/5 163/2/5 187/2/5
f 189/2/5 170/2/5 169/2/5
f 189/3/5 169/3/5 188/3/5
f 190/1/5 171/1/5 170/1/5
f 190/2/5 170/2/5 189/2/5
f 191/1/5 177/1/5 176/1/5
f 191/1/5 176/1/5 175/1/5
f 191/1/5 190/1/5 189/1/5
f 191/1/5 187/1/5 186/1/5
f 191/1/5 178/1/5 177/1/5
f 191/1/5 188/1/5 187/1/5
f 191/1/5 186/1/5 185/1/5
f 191/1/5 179/1/5 178/1/5
f 191/1/5 189/1/5 188/1/5
f 191/1/5 185/1/5 184/1/5
f 191/1/5 180/1/5 179/1/5
f 191/1/5 172/1/5 166/1/5
f 191/1/5 184/1/5 183/1/5
f 191/1/5 181/1/5 180/1/5
f 191/1/5 173/1/5 172/1/5
f 191/1/5 183/1/5 182/1/5
f 191/1/5 175/1/5 174/1/5
f 191/1/5 174/1/5 173/1/5
f 191/1/5 182/1/5 181/1/5
f 192/1/5 171/1/5 190/1/5
f 192/1/5 190/1/5 191/1/5
f 193/1/6 194/1/6 203/1/6
f 194/3/6 195/3/6 204/3/6
f 203/1/6 194/1/6 204/1/6
f 200/1/6 201/1/6 205/1/6
f 199/2/6 200/2/6 205/2/6
f 205/1/6 201/1/6 206/1/6
f 202/1/6 203/1/6 209/1/6
f 203/2/6 204/2/6 210/2/6
f 209/1/6 203/1/6 210/1/6
f 206/1/6 207/1/6 211/1/6
f 205/3/6 206/3/6 211/3/6
f 211/1/6 207/1/6 212/1/6
f 208/1/6 209/1/6 215/1/6
f 209/3/6 210/3/6 216/3/6
f 215/1/6 209/1/6 216/1/6
f 212/1/6 213/1/6 217/1/6
f 211/2/6 212/2/6 217/2/6
f 217/1/6 213/1/6 218/1/6
f 214/1/6 215/1/6 221/1/6
f 215/2/6 216/2/6 222/2/6
f 221/1/6 215/1/6 222/1/6
f 218/1/6 219/1/6 223/1/6
f 217/3/6 218/3/6 223/3/6
f 223/1/6 219/1/6 224/1/6
f 220/1/6 221/1/6 227/1/6
f 221/3/6 222/3/6 228/3/6
f 227/1/6 221/1/6 228/1/6
f 224/1/6 225/1/6 229/1/6
f 223/2/6 224/2/6 229/2/6
f 229/1/6 225/1/6 230/1/6
f 226/1/6 227/1/6 233/1/6
f 227/2/6 228/2/6 234/2/6
f 233/1/6 227/1/6 234/1/6
f 230/1/6 231/1/6 235/1/6
f 229/3/6 230/3/6 235/3/6
f 235/1/6 231/1/6 236/1/6
f 232/1/6 233/1/6 238/1/6
f 233/3/6 234/3/6 238/3/6
f 234/2/6 228/2/6 239/2/6
f 238/3/6 234/3/6 239/3/6
f 228/3/6 222/3/6 240/3/6
f 239/2/6 228/2/6 240/2/6
f 222/2/6 216/2/6 241/2/6
f 240/3/6 222/3/6 241/3/6
f 216/3/6 210/3/6 242/3/6
f 241/2/6 216/2/6 242/2/6
f 210/2/6 204/2/6 243/2/6
f 242/3/6 210/3/6 243/3/6
f 204/3/6 195/3/6 244/3/6
f 243/2/6 204/2/6 244/2/6
f 195/2/6 196/2/6 245/2/6
f 244/3/6 195/3/6 245/3/6
f 196/3/6 197/3/6 246/3/6
f 245/2/6 196/2/6 246/2/6
f 197/2/6 198/2/6 247/2/6
f 246/3/6 197/3/6 247/3/6
f 198/3/6 199/3/6 248/3/6
f 247/2/6 198/2/6 248/2/6
f 199/2/6 205/2/6 249/2/6
f 248/3/6 199/3/6 249/3/6
f 205/3/6 211/3/6 250/3/6
f 249/2/6 205/2/6 250/2/6
f 211/2/6 217/2/6 251/2/6
f 250/3/6 211/3/6 251/3/6
f 217/3/6 223/3/6 252/3/6
f 251/2/6 217/2/6 252/2/6
f 223/2/6 229/2/6 253/2/6
f 252/3/6 223/3/6 253/3/6
f 229/3/6 235/3/6 254/3/6
f 253/2/6 229/2/6 254/2/6
f 235/2/6 236/2/6 255/2/6
f 254/3/6 235/3/6 255/3/6
f 236/1/6 237/1/6 256/1/6
f 255/2/6 236/2/6 256/2/6
f 242/1/6 243/1/6 257/1/6
f 241/1/6 242/1/6 257/1/6
f 255/1/6 256/1/6 257/1/6
f 252/1/6 253/1/6 257/1/6
f 243/1/6 244/1/6 257/1/6
f 253/1/6 254/1/6 257/1/6
f 251/1/6 252/1/6 257/1/6
f 244/1/6 245/1/6 257/1/6
f 254/1/6 255/1/6 257/1/6
f 250/1/6 251/1/6 257/1/6
f 245/1/6 246/1/6 257/1/6
f 232/1/6 238/1/6 257/1/6
f 249/1/6 250/1/6 257/1/6
f 246/1/6 247/1/6 257/1/6
f 238/1/6 239/1/6 257/1/6
f 248/1/6 249/1/6 257/1/6
f 240/1/6 241/1/6 257/1/6
f 239/1/6 240/1/6 257/1/6
f 247/1/6 248/1/6 257/1/6
f 256/1/6 237/1/6 258/1/6
f 257/1/6 256/1/6 258/1/6
